<?xml version='1.0' encoding='UTF-8' standalone='no'?>
<!-- Created with Fritzing (http://www.fritzing.org/) -->
<svg xmlns:svg='http://www.w3.org/2000/svg' xmlns='http://www.w3.org/2000/svg' version='1.2' baseProfile='tiny' x='0in' y='0in' width='3.99908in' height='3.23037in' viewBox='0 0 287.934 232.587' >
<g partID='57680'><g transform='translate(34.4,44.3698)' ><g id="schematic">
<rect stroke-linecap="round" stroke="#000000" height="135.9" class="interior rect" stroke-width="0.9" x="14.85" fill="#FFFFFF" y="14.85" width="78.3"/>
<line stroke-linecap="round" x1="93.2499" y1="28.8" stroke="#787878" id="connector61pin" class="pin" stroke-width="0.699999" x2="107.65" y2="28.8" fill="none"/>
<text font-family="'Droid Sans'" stroke="none" class="text" stroke-width="0" x="91.8499" font-size="3.49999" fill="#8c8c8c" y="29.4999" text-anchor="end">D0/RX</text>
<g stroke="none" id="connector61terminal" height="0.699999" class="terminal" stroke-width="0" x="107.65" fill="none" y="28.4499" width="0.699999"/>
<line stroke-linecap="round" x1="93.2499" y1="36" stroke="#787878" id="connector62pin" class="pin" stroke-width="0.699999" x2="107.65" y2="36" fill="none"/>
<text font-family="'Droid Sans'" stroke="none" class="text" stroke-width="0" x="91.8499" font-size="3.49999" fill="#8c8c8c" y="36.6999" text-anchor="end">D1/TX</text>
<g stroke="none" id="connector62terminal" height="0.699999" class="terminal" stroke-width="0" x="107.65" fill="none" y="35.6499" width="0.699999"/>
<line stroke-linecap="round" x1="93.2499" y1="43.2" stroke="#787878" id="connector63pin" class="pin" stroke-width="0.699999" x2="107.65" y2="43.2" fill="none"/>
<text font-family="'Droid Sans'" stroke="none" class="text" stroke-width="0" x="91.8499" font-size="3.49999" fill="#8c8c8c" y="43.8999" text-anchor="end">D2</text>
<g stroke="none" id="connector63terminal" height="0.699999" class="terminal" stroke-width="0" x="107.65" fill="none" y="42.8499" width="0.699999"/>
<line stroke-linecap="round" x1="93.2499" y1="50.4" stroke="#787878" id="connector64pin" class="pin" stroke-width="0.699999" x2="107.65" y2="50.4" fill="none"/>
<text font-family="'Droid Sans'" stroke="none" class="text" stroke-width="0" x="91.8499" font-size="3.49999" fill="#8c8c8c" y="51.0999" text-anchor="end">D3 PWM</text>
<g stroke="none" id="connector64terminal" height="0.699999" class="terminal" stroke-width="0" x="107.65" fill="none" y="50.0499" width="0.699999"/>
<line stroke-linecap="round" x1="93.2499" y1="57.6" stroke="#787878" id="connector65pin" class="pin" stroke-width="0.699999" x2="107.65" y2="57.6" fill="none"/>
<text font-family="'Droid Sans'" stroke="none" class="text" stroke-width="0" x="91.8499" font-size="3.49999" fill="#8c8c8c" y="58.2999" text-anchor="end">D4</text>
<g stroke="none" id="connector65terminal" height="0.699999" class="terminal" stroke-width="0" x="107.65" fill="none" y="57.2499" width="0.699999"/>
<line stroke-linecap="round" x1="93.2499" y1="64.8" stroke="#787878" id="connector66pin" class="pin" stroke-width="0.699999" x2="107.65" y2="64.8" fill="none"/>
<text font-family="'Droid Sans'" stroke="none" class="text" stroke-width="0" x="91.8499" font-size="3.49999" fill="#8c8c8c" y="65.4999" text-anchor="end">D5 PWM</text>
<g stroke="none" id="connector66terminal" height="0.699999" class="terminal" stroke-width="0" x="107.65" fill="none" y="64.4499" width="0.699999"/>
<line stroke-linecap="round" x1="93.2499" y1="72" stroke="#787878" id="connector67pin" class="pin" stroke-width="0.699999" x2="107.65" y2="72" fill="none"/>
<text font-family="'Droid Sans'" stroke="none" class="text" stroke-width="0" x="91.8499" font-size="3.49999" fill="#8c8c8c" y="72.6999" text-anchor="end">D6 PWM</text>
<g stroke="none" id="connector67terminal" height="0.699999" class="terminal" stroke-width="0" x="107.65" fill="none" y="71.6499" width="0.699999"/>
<line stroke-linecap="round" x1="93.2499" y1="79.2" stroke="#787878" id="connector68pin" class="pin" stroke-width="0.699999" x2="107.65" y2="79.2" fill="none"/>
<text font-family="'Droid Sans'" stroke="none" class="text" stroke-width="0" x="91.8499" font-size="3.49999" fill="#8c8c8c" y="79.8999" text-anchor="end">D7</text>
<g stroke="none" id="connector68terminal" height="0.699999" class="terminal" stroke-width="0" x="107.65" fill="none" y="78.8499" width="0.699999"/>
<line stroke-linecap="round" x1="93.2499" y1="86.4" stroke="#787878" id="connector51pin" class="pin" stroke-width="0.699999" x2="107.65" y2="86.4" fill="none"/>
<text font-family="'Droid Sans'" stroke="none" class="text" stroke-width="0" x="91.8499" font-size="3.49999" fill="#8c8c8c" y="87.0999" text-anchor="end">D8</text>
<g stroke="none" id="connector51terminal" height="0.699999" class="terminal" stroke-width="0" x="107.65" fill="none" y="86.0499" width="0.699999"/>
<line stroke-linecap="round" x1="93.2499" y1="93.6" stroke="#787878" id="connector52pin" class="pin" stroke-width="0.699999" x2="107.65" y2="93.6" fill="none"/>
<text font-family="'Droid Sans'" stroke="none" class="text" stroke-width="0" x="91.8499" font-size="3.49999" fill="#8c8c8c" y="94.2999" text-anchor="end">D9 PWM</text>
<g stroke="none" id="connector52terminal" height="0.699999" class="terminal" stroke-width="0" x="107.65" fill="none" y="93.2499" width="0.699999"/>
<line stroke-linecap="round" x1="93.2499" y1="100.8" stroke="#787878" id="connector53pin" class="pin" stroke-width="0.699999" x2="107.65" y2="100.8" fill="none"/>
<text font-family="'Droid Sans'" stroke="none" class="text" stroke-width="0" x="91.8499" font-size="3.49999" fill="#8c8c8c" y="101.5" text-anchor="end">D10 PWM/SS</text>
<g stroke="none" id="connector53terminal" height="0.699999" class="terminal" stroke-width="0" x="107.65" fill="none" y="100.45" width="0.699999"/>
<line stroke-linecap="round" x1="93.2499" y1="108" stroke="#787878" id="connector54pin" class="pin" stroke-width="0.699999" x2="107.65" y2="108" fill="none"/>
<text font-family="'Droid Sans'" stroke="none" class="text" stroke-width="0" x="91.8499" font-size="3.49999" fill="#8c8c8c" y="108.7" text-anchor="end">D11 PWM/MOSI</text>
<g stroke="none" id="connector54terminal" height="0.699999" class="terminal" stroke-width="0" x="107.65" fill="none" y="107.65" width="0.699999"/>
<line stroke-linecap="round" x1="93.2499" y1="115.2" stroke="#787878" id="connector55pin" class="pin" stroke-width="0.699999" x2="107.65" y2="115.2" fill="none"/>
<text font-family="'Droid Sans'" stroke="none" class="text" stroke-width="0" x="91.8499" font-size="3.49999" fill="#8c8c8c" y="115.9" text-anchor="end">D12/MISO</text>
<g stroke="none" id="connector55terminal" height="0.699999" class="terminal" stroke-width="0" x="107.65" fill="none" y="114.85" width="0.699999"/>
<line stroke-linecap="round" x1="93.2499" y1="122.4" stroke="none" id="connector41pin" class="pin" stroke-width="0" x2="107.65" y2="122.4" fill="none"/>
<rect stroke="none" id="connector41terminal" height="0.699999" class="terminal" stroke-width="0" x="107.65" fill="none" y="122.05" width="0.699999"/>
<line stroke-linecap="round" x1="93.2499" y1="122.4" stroke="#787878" id="connector56pin" class="pin" stroke-width="0.699999" x2="107.65" y2="122.4" fill="none"/>
<text font-family="'Droid Sans'" stroke="none" class="text" stroke-width="0" x="91.8499" font-size="3.49999" fill="#8c8c8c" y="123.1" text-anchor="end">D13/SCK</text>
<g stroke="none" id="connector56terminal" height="0.699999" class="terminal" stroke-width="0" x="107.65" fill="none" y="122.05" width="0.699999"/>
<line stroke-linecap="round" x1="0.349999" y1="28.8" stroke="none" id="connector43pin" class="pin" stroke-width="0" x2="14.75" y2="28.8" fill="none"/>
<rect stroke="none" id="connector43terminal" height="0.699999" class="terminal" stroke-width="0" x="-0.349999" fill="none" y="28.4499" width="0.699999"/>
<line stroke-linecap="round" x1="0.349999" y1="28.8" stroke="#787878" id="connector85pin" class="pin" stroke-width="0.699999" x2="14.75" y2="28.8" fill="none"/>
<text font-family="'Droid Sans'" stroke="none" class="text" stroke-width="0" x="16.15" font-size="3.49999" fill="#8c8c8c" y="29.4999" text-anchor="start">RESET</text>
<g stroke="none" id="connector85terminal" height="0.699999" class="terminal" stroke-width="0" x="-0.349999" fill="none" y="28.4499" width="0.699999"/>
<line stroke-linecap="round" x1="0.349999" y1="36" stroke="#787878" id="connector49pin" class="pin" stroke-width="0.699999" x2="14.75" y2="36" fill="none"/>
<text font-family="'Droid Sans'" stroke="none" class="text" stroke-width="0" x="16.15" font-size="3.49999" fill="#8c8c8c" y="36.6999" text-anchor="start">RESET2</text>
<rect stroke="none" id="connector49terminal" height="0.699999" class="terminal" stroke-width="0" x="-0.349999" fill="none" y="35.6499" width="0.699999"/>
<line stroke-linecap="round" x1="0.349999" y1="43.2" stroke="#787878" id="connector58pin" class="pin" stroke-width="0.699999" x2="14.75" y2="43.2" fill="none"/>
<text font-family="'Droid Sans'" stroke="none" class="text" stroke-width="0" x="16.15" font-size="3.49999" fill="#8c8c8c" y="43.8999" text-anchor="start">AREF</text>
<g stroke="none" id="connector58terminal" height="0.699999" class="terminal" stroke-width="0" x="-0.349999" fill="none" y="42.8499" width="0.699999"/>
<line stroke-linecap="round" x1="0.349999" y1="50.4" stroke="#787878" id="connector84pin" class="pin" stroke-width="0.699999" x2="14.75" y2="50.4" fill="none"/>
<text font-family="'Droid Sans'" stroke="none" class="text" stroke-width="0" x="16.15" font-size="3.49999" fill="#8c8c8c" y="51.0999" text-anchor="start">ioref</text>
<g stroke="none" id="connector84terminal" height="0.699999" class="terminal" stroke-width="0" x="-0.349999" fill="none" y="50.0499" width="0.699999"/>
<line stroke-linecap="round" x1="0.349999" y1="64.8" stroke="#787878" id="connector0pin" class="pin" stroke-width="0.699999" x2="14.75" y2="64.8" fill="none"/>
<text font-family="'Droid Sans'" stroke="none" class="text" stroke-width="0" x="16.15" font-size="3.49999" fill="#8c8c8c" y="65.4999" text-anchor="start">A0</text>
<g stroke="none" id="connector0terminal" height="0.699999" class="terminal" stroke-width="0" x="-0.349999" fill="none" y="64.4499" width="0.699999"/>
<line stroke-linecap="round" x1="0.349999" y1="72" stroke="#787878" id="connector1pin" class="pin" stroke-width="0.699999" x2="14.75" y2="72" fill="none"/>
<text font-family="'Droid Sans'" stroke="none" class="text" stroke-width="0" x="16.15" font-size="3.49999" fill="#8c8c8c" y="72.6999" text-anchor="start">A1</text>
<g stroke="none" id="connector1terminal" height="0.699999" class="terminal" stroke-width="0" x="-0.349999" fill="none" y="71.6499" width="0.699999"/>
<line stroke-linecap="round" x1="0.349999" y1="79.2" stroke="#787878" id="connector2pin" class="pin" stroke-width="0.699999" x2="14.75" y2="79.2" fill="none"/>
<text font-family="'Droid Sans'" stroke="none" class="text" stroke-width="0" x="16.15" font-size="3.49999" fill="#8c8c8c" y="79.8999" text-anchor="start">A2</text>
<g stroke="none" id="connector2terminal" height="0.699999" class="terminal" stroke-width="0" x="-0.349999" fill="none" y="78.8499" width="0.699999"/>
<line stroke-linecap="round" x1="0.349999" y1="86.4" stroke="#787878" id="connector3pin" class="pin" stroke-width="0.699999" x2="14.75" y2="86.4" fill="none"/>
<text font-family="'Droid Sans'" stroke="none" class="text" stroke-width="0" x="16.15" font-size="3.49999" fill="#8c8c8c" y="87.0999" text-anchor="start">A3</text>
<g stroke="none" id="connector3terminal" height="0.699999" class="terminal" stroke-width="0" x="-0.349999" fill="none" y="86.0499" width="0.699999"/>
<line stroke-linecap="round" x1="0.349999" y1="93.6" stroke="none" id="connector48pin" class="pin" stroke-width="0" x2="14.75" y2="93.6" fill="none"/>
<rect stroke="none" id="connector48terminal" height="0.699999" class="terminal" stroke-width="0" x="-0.349999" fill="none" y="93.2499" width="0.699999"/>
<line stroke-linecap="round" x1="0.349999" y1="93.6" stroke="none" id="connector45pin" class="pin" stroke-width="0" x2="14.75" y2="93.6" fill="none"/>
<rect stroke="none" id="connector45terminal" height="0.699999" class="terminal" stroke-width="0" x="-0.349999" fill="none" y="93.2499" width="0.699999"/>
<line stroke-linecap="round" x1="0.349999" y1="93.6" stroke="none" id="connector4pin" class="pin" stroke-width="0" x2="14.75" y2="93.6" fill="none"/>
<g stroke="none" id="connector4terminal" height="0.699999" class="terminal" stroke-width="0" x="-0.349999" fill="none" y="93.2499" width="0.699999"/>
<line stroke-linecap="round" x1="0.349999" y1="93.6" stroke="none" id="connector39pin" class="pin" stroke-width="0" x2="14.75" y2="93.6" fill="none"/>
<rect stroke="none" id="connector39terminal" height="0.699999" class="terminal" stroke-width="0" x="-0.349999" fill="none" y="93.2499" width="0.699999"/>
<line stroke-linecap="round" x1="0.349999" y1="93.6" stroke="none" id="connector47pin" class="pin" stroke-width="0" x2="14.75" y2="93.6" fill="none"/>
<rect stroke="none" id="connector47terminal" height="0.699999" class="terminal" stroke-width="0" x="-0.349999" fill="none" y="93.2499" width="0.699999"/>
<line stroke-linecap="round" x1="0.349999" y1="93.6" stroke="none" id="connector42pin" class="pin" stroke-width="0" x2="14.75" y2="93.6" fill="none"/>
<rect stroke="none" id="connector42terminal" height="0.699999" class="terminal" stroke-width="0" x="-0.349999" fill="none" y="93.2499" width="0.699999"/>
<line stroke-linecap="round" x1="0.349999" y1="93.6" stroke="#787878" id="connector59pin" class="pin" stroke-width="0.699999" x2="14.75" y2="93.6" fill="none"/>
<text font-family="'Droid Sans'" stroke="none" class="text" stroke-width="0" x="16.15" font-size="3.49999" fill="#8c8c8c" y="94.2999" text-anchor="start">A4/SDA</text>
<g stroke="none" id="connector59terminal" height="0.699999" class="terminal" stroke-width="0" x="-0.349999" fill="none" y="93.2499" width="0.699999"/>
<line stroke-linecap="round" x1="0.349999" y1="100.8" stroke="none" id="connector5pin" class="pin" stroke-width="0" x2="14.75" y2="100.8" fill="none"/>
<g stroke="none" id="connector5terminal" height="0.699999" class="terminal" stroke-width="0" x="-0.349999" fill="none" y="100.45" width="0.699999"/>
<line stroke-linecap="round" x1="0.349999" y1="100.8" stroke="#787878" id="connector60pin" class="pin" stroke-width="0.699999" x2="14.75" y2="100.8" fill="none"/>
<text font-family="'Droid Sans'" stroke="none" class="text" stroke-width="0" x="16.15" font-size="3.49999" fill="#8c8c8c" y="101.5" text-anchor="start">A5/SCL</text>
<g stroke="none" id="connector60terminal" height="0.699999" class="terminal" stroke-width="0" x="-0.349999" fill="none" y="100.45" width="0.699999"/>
<line stroke-linecap="round" x1="0.349999" y1="136.8" stroke="#787878" id="connector91pin" class="pin" stroke-width="0.699999" x2="14.75" y2="136.8" fill="none"/>
<text font-family="'Droid Sans'" stroke="none" class="text" stroke-width="0" x="16.15" font-size="3.49999" fill="#8c8c8c" y="137.5" text-anchor="start">N/C</text>
<g stroke="none" id="connector91terminal" height="0.699999" class="terminal" stroke-width="0" x="-0.349999" fill="none" y="136.45" width="0.699999"/>
<line stroke-linecap="round" x1="57.6" y1="150.85" stroke="none" id="connector88pin" class="pin" stroke-width="0" x2="57.6" y2="165.25" fill="none"/>
<g stroke="none" id="connector88terminal" height="0.699999" class="terminal" stroke-width="0" x="57.2499" fill="none" y="165.25" width="0.699999"/>
<line stroke-linecap="round" x1="57.6" y1="150.85" stroke="none" id="connector57pin" class="pin" stroke-width="0" x2="57.6" y2="165.25" fill="none"/>
<g stroke="none" id="connector57terminal" height="0.699999" class="terminal" stroke-width="0" x="57.2499" fill="none" y="165.25" width="0.699999"/>
<line stroke-linecap="round" x1="57.6" y1="150.85" stroke="none" id="connector44pin" class="pin" stroke-width="0" x2="57.6" y2="165.25" fill="none"/>
<rect stroke="none" id="connector44terminal" height="0.699999" class="terminal" stroke-width="0" x="57.2499" fill="none" y="165.25" width="0.699999"/>
<line stroke-linecap="round" x1="57.6" y1="150.85" stroke="none" id="connector50pin" class="pin" stroke-width="0" x2="57.6" y2="165.25" fill="none"/>
<rect stroke="none" id="connector50terminal" height="0.699999" class="terminal" stroke-width="0" x="57.2499" fill="none" y="165.25" width="0.699999"/>
<line stroke-linecap="round" x1="57.6" y1="150.85" stroke="#787878" id="connector89pin" class="pin" stroke-width="0.699999" x2="57.6" y2="165.25" fill="none"/>
<g transform="matrix(1, 0, 0, 1, 58.2999, 149.45)">
<g>
<g transform="rotate(270)">
<g>
<text font-family="'Droid Sans'" stroke="none" class="text" stroke-width="0" x="0" font-size="3.49999" fill="#8c8c8c" y="0" text-anchor="start">GND</text>
</g>
</g>
</g>
</g>
<g stroke="none" id="connector89terminal" height="0.699999" class="terminal" stroke-width="0" x="57.2499" fill="none" y="165.25" width="0.699999"/>
<line stroke-linecap="round" x1="36" y1="0.349999" stroke="#787878" id="connector86pin" class="pin" stroke-width="0.699999" x2="36" y2="14.75" fill="none"/>
<g transform="matrix(1, 0, 0, 1, 36.6999, 16.15)">
<g>
<g transform="rotate(270)">
<g>
<text font-family="'Droid Sans'" stroke="none" class="text" stroke-width="0" x="0" font-size="3.49999" fill="#8c8c8c" y="0" text-anchor="end">3V3</text>
</g>
</g>
</g>
</g>
<g stroke="none" id="connector86terminal" height="0.699999" class="terminal" stroke-width="0" x="35.6499" fill="none" y="-0.349999" width="0.699999"/>
<line stroke-linecap="round" x1="50.4" y1="0.349999" stroke="none" id="connector40pin" class="pin" stroke-width="0" x2="50.4" y2="14.75" fill="none"/>
<rect stroke="none" id="connector40terminal" height="0.699999" class="terminal" stroke-width="0" x="50.0499" fill="none" y="-0.349999" width="0.699999"/>
<line stroke-linecap="round" x1="50.4" y1="0.349999" stroke="none" id="connector46pin" class="pin" stroke-width="0" x2="50.4" y2="14.75" fill="none"/>
<rect stroke="none" id="connector46terminal" height="0.699999" class="terminal" stroke-width="0" x="50.0499" fill="none" y="-0.349999" width="0.699999"/>
<line stroke-linecap="round" x1="50.4" y1="0.349999" stroke="#787878" id="connector87pin" class="pin" stroke-width="0.699999" x2="50.4" y2="14.75" fill="none"/>
<g transform="matrix(1, 0, 0, 1, 51.0999, 16.15)">
<g>
<g transform="rotate(270)">
<g>
<text font-family="'Droid Sans'" stroke="none" class="text" stroke-width="0" x="0" font-size="3.49999" fill="#8c8c8c" y="0" text-anchor="end">5V</text>
</g>
</g>
</g>
</g>
<g stroke="none" id="connector87terminal" height="0.699999" class="terminal" stroke-width="0" x="50.0499" fill="none" y="-0.349999" width="0.699999"/>
<line stroke-linecap="round" x1="64.8" y1="0.349999" stroke="#787878" id="connector90pin" class="pin" stroke-width="0.699999" x2="64.8" y2="14.75" fill="none"/>
<g transform="matrix(1, 0, 0, 1, 65.4999, 16.15)">
<g>
<g transform="rotate(270)">
<g>
<text font-family="'Droid Sans'" stroke="none" class="text" stroke-width="0" x="0" font-size="3.49999" fill="#8c8c8c" y="0" text-anchor="end">VIN</text>
</g>
</g>
</g>
</g>
<g stroke="none" id="connector90terminal" height="0.699999" class="terminal" stroke-width="0" x="64.4499" fill="none" y="-0.349999" width="0.699999"/>
<text font-family="'Droid Sans'" stroke="none" id="label" class="text" stroke-width="0" x="54.4501" font-size="4.25001" fill="#000000" y="76.4498" text-anchor="middle">Arduino</text>
<text font-family="'Droid Sans'" stroke="none" id="label" class="text" stroke-width="0" x="54.4501" font-size="4.25001" fill="#000000" y="80.9833" text-anchor="middle">Uno</text>
<text font-family="'Droid Sans'" stroke="none" id="label" class="text" stroke-width="0" x="54.4501" font-size="4.25001" fill="#000000" y="85.5167" text-anchor="middle">(Rev3)</text>
</g>
</g></g><g partID='60100'><g transform='translate(264.8,94.7698)' ><g transform='matrix(0,1,-1,0,0,0)'  ><g id="schematic">
<rect stroke-linecap="round" stroke="#000000" height="35.1" class="interior rect" stroke-width="0.9" x="14.85" fill="#FFFFFF" y="14.85" width="42.3"/>
<line stroke-linecap="round" x1="57.2499" y1="28.8" stroke="#787878" id="connector2pin" class="pin" stroke-width="0.699999" x2="71.6499" y2="28.8" fill="none"/>
<text font-family="'Droid Sans'" stroke="none" class="text" stroke-width="0" x="64.4499" font-size="2.5" fill="#8c8c8c" y="27.75" text-anchor="middle">3</text>
<text font-family="'Droid Sans'" stroke="none" class="text" stroke-width="0" x="55.8499" font-size="3.49999" fill="#8c8c8c" y="29.4999" text-anchor="end">HORZ</text>
<g stroke="none" id="connector2terminal" height="0.699999" class="terminal" stroke-width="0" x="71.6499" fill="none" y="28.4499" width="0.699999"/>
<line stroke-linecap="round" x1="57.2499" y1="36" stroke="#787878" id="connector3pin" class="pin" stroke-width="0.699999" x2="71.6499" y2="36" fill="none"/>
<text font-family="'Droid Sans'" stroke="none" class="text" stroke-width="0" x="64.4499" font-size="2.5" fill="#8c8c8c" y="34.95" text-anchor="middle">4</text>
<text font-family="'Droid Sans'" stroke="none" class="text" stroke-width="0" x="55.8499" font-size="3.49999" fill="#8c8c8c" y="36.6999" text-anchor="end">VERT</text>
<g stroke="none" id="connector3terminal" height="0.699999" class="terminal" stroke-width="0" x="71.6499" fill="none" y="35.6499" width="0.699999"/>
<line stroke-linecap="round" x1="0.349999" y1="28.8" stroke="#787878" id="connector1pin" class="pin" stroke-width="0.699999" x2="14.75" y2="28.8" fill="none"/>
<text font-family="'Droid Sans'" stroke="none" class="text" stroke-width="0" x="7.54999" font-size="2.5" fill="#8c8c8c" y="27.75" text-anchor="middle">2</text>
<text font-family="'Droid Sans'" stroke="none" class="text" stroke-width="0" x="16.15" font-size="3.49999" fill="#8c8c8c" y="29.4999" text-anchor="start">SEL</text>
<g stroke="none" id="connector1terminal" height="0.699999" class="terminal" stroke-width="0" x="-0.349999" fill="none" y="28.4499" width="0.699999"/>
<line stroke-linecap="round" x1="36" y1="50.0499" stroke="#787878" id="connector0pin" class="pin" stroke-width="0.699999" x2="36" y2="64.4499" fill="none"/>
<g transform="matrix(1, 0, 0, 1, 34.95, 57.2499)">
<g>
<g transform="rotate(270)">
<g>
<text font-family="'Droid Sans'" stroke="none" class="text" stroke-width="0" x="0" font-size="2.5" fill="#8c8c8c" y="0" text-anchor="middle">1</text>
</g>
</g>
</g>
</g>
<g transform="matrix(1, 0, 0, 1, 36.6999, 48.6499)">
<g>
<g transform="rotate(270)">
<g>
<text font-family="'Droid Sans'" stroke="none" class="text" stroke-width="0" x="0" font-size="3.49999" fill="#8c8c8c" y="0" text-anchor="start">GND</text>
</g>
</g>
</g>
</g>
<g stroke="none" id="connector0terminal" height="0.699999" class="terminal" stroke-width="0" x="35.6499" fill="none" y="64.4499" width="0.699999"/>
<line stroke-linecap="round" x1="36" y1="0.349999" stroke="#787878" id="connector4pin" class="pin" stroke-width="0.699999" x2="36" y2="14.75" fill="none"/>
<g transform="matrix(1, 0, 0, 1, 34.95, 7.54999)">
<g>
<g transform="rotate(270)">
<g>
<text font-family="'Droid Sans'" stroke="none" class="text" stroke-width="0" x="0" font-size="2.5" fill="#8c8c8c" y="0" text-anchor="middle">5</text>
</g>
</g>
</g>
</g>
<g transform="matrix(1, 0, 0, 1, 36.6999, 16.15)">
<g>
<g transform="rotate(270)">
<g>
<text font-family="'Droid Sans'" stroke="none" class="text" stroke-width="0" x="0" font-size="3.49999" fill="#8c8c8c" y="0" text-anchor="end">VCC</text>
</g>
</g>
</g>
</g>
<g stroke="none" id="connector4terminal" height="0.699999" class="terminal" stroke-width="0" x="35.6499" fill="none" y="-0.349999" width="0.699999"/>
<text font-family="'Droid Sans'" stroke="none" id="label" class="text" stroke-width="0" x="36.4501" font-size="4.25001" fill="#000000" y="28.3165" text-anchor="middle">Thumb</text>
<text font-family="'Droid Sans'" stroke="none" id="label" class="text" stroke-width="0" x="36.4501" font-size="4.25001" fill="#000000" y="32.8499" text-anchor="middle">Joystick</text>
</g>
</g></g></g><g partID='60340'><g transform='translate(265.999,4.18975)' ><g transform='matrix(0,1,-1,0,0,0)'  ><g id="schematic" xmlns="http://www.w3.org/2000/svg">
<path d="M34.179,9.778l0.875,0c0.188,0,0.354,0.015,0.495,0.043c0.144,0.029,0.265,0.075,0.356,0.139c0.099,0.063,0.171,0.147,0.218,0.251c0.049,0.103,0.071,0.23,0.071,0.381c0,0.091,-0.014,0.176,-0.043,0.255c-0.026,0.079,-0.067,0.148,-0.123,0.209c-0.055,0.06,-0.12,0.11,-0.2,0.15s-0.17,0.066,-0.271,0.08l0,0.021c0.102,0.018,0.195,0.043,0.284,0.076c0.089,0.033,0.166,0.078,0.229,0.137c0.066,0.058,0.119,0.131,0.156,0.219c0.039,0.088,0.06,0.194,0.06,0.32c0,0.146,-0.024,0.277,-0.072,0.393c-0.047,0.114,-0.116,0.212,-0.207,0.292c-0.09,0.08,-0.198,0.141,-0.327,0.184c-0.13,0.042,-0.273,0.063,-0.438,0.063l-1.063,0L34.179,9.778zM34.586,11.142l0.535,0c0.123,0,0.228,-0.012,0.312,-0.033c0.084,-0.022,0.149,-0.055,0.201,-0.098c0.053,-0.044,0.09,-0.098,0.11,-0.163c0.022,-0.065,0.034,-0.141,0.034,-0.228c0,-0.176,-0.057,-0.302,-0.17,-0.378c-0.112,-0.076,-0.291,-0.114,-0.532,-0.114l-0.49,0L34.586,11.142zM34.586,11.483l0,1.16l0.584,0c0.129,0,0.235,-0.014,0.324,-0.043c0.088,-0.029,0.157,-0.07,0.211,-0.123s0.092,-0.116,0.114,-0.19c0.022,-0.074,0.035,-0.155,0.035,-0.245c0,-0.082,-0.013,-0.157,-0.037,-0.227c-0.022,-0.068,-0.063,-0.128,-0.116,-0.177c-0.056,-0.049,-0.13,-0.087,-0.22,-0.114c-0.092,-0.027,-0.205,-0.041,-0.338,-0.041L34.586,11.483z" xmlns="http://www.w3.org/2000/svg" fill="#787878"/>
<path d="M18.565,15.1c-0.193,0,-0.35,-0.157,-0.35,-0.35l0,-7.2c0,-0.193,0.157,-0.35,0.35,-0.35s0.35,0.157,0.35,0.35l0,7.2C18.916,14.943,18.758,15.1,18.565,15.1z" xmlns="http://www.w3.org/2000/svg"/>
<path d="M18.565,7.55L18.565,7.55L18.565,7.55z" xmlns="http://www.w3.org/2000/svg" fill="none"/>
<path d="M21.059,11.295l1.063,0l0,1.575c-0.081,0.026,-0.162,0.05,-0.243,0.07c-0.083,0.021,-0.167,0.038,-0.254,0.052c-0.086,0.014,-0.178,0.024,-0.271,0.032c-0.096,0.007,-0.197,0.011,-0.309,0.011c-0.229,0,-0.434,-0.038,-0.61,-0.115c-0.176,-0.077,-0.327,-0.187,-0.448,-0.33c-0.121,-0.143,-0.213,-0.316,-0.276,-0.521c-0.063,-0.205,-0.095,-0.434,-0.095,-0.688c0,-0.252,0.035,-0.479,0.104,-0.684c0.07,-0.203,0.171,-0.377,0.305,-0.521c0.133,-0.143,0.297,-0.253,0.493,-0.33c0.195,-0.076,0.418,-0.115,0.668,-0.115c0.163,0,0.318,0.017,0.47,0.049c0.147,0.032,0.287,0.079,0.418,0.141l-0.158,0.355c-0.053,-0.024,-0.11,-0.048,-0.172,-0.07c-0.062,-0.021,-0.123,-0.041,-0.188,-0.058c-0.064,-0.018,-0.131,-0.03,-0.197,-0.041c-0.068,-0.01,-0.137,-0.016,-0.205,-0.016c-0.178,0,-0.336,0.03,-0.475,0.089c-0.137,0.06,-0.252,0.146,-0.346,0.257c-0.094,0.111,-0.164,0.246,-0.211,0.406c-0.049,0.159,-0.073,0.34,-0.073,0.54c0,0.19,0.021,0.365,0.062,0.523c0.039,0.158,0.104,0.294,0.191,0.408c0.088,0.114,0.201,0.203,0.34,0.267c0.141,0.063,0.307,0.094,0.504,0.094c0.064,0,0.123,-0.002,0.178,-0.005c0.054,-0.004,0.103,-0.009,0.146,-0.015c0.046,-0.006,0.089,-0.013,0.129,-0.021c0.041,-0.009,0.08,-0.016,0.117,-0.023l0,-0.958L21.06,11.653L21.059,11.295L21.059,11.295z" xmlns="http://www.w3.org/2000/svg" fill="#787878"/>
<path d="M32.963,15.1c-0.192,0,-0.351,-0.157,-0.351,-0.35L32.612,7.9L4.515,7.9l0,6.85c0,0.193,-0.157,0.35,-0.35,0.35s-0.35,-0.157,-0.35,-0.35L3.815,7.2l29.499,0l0,7.55C33.313,14.943,33.155,15.1,32.963,15.1z" xmlns="http://www.w3.org/2000/svg"/>
<path d="M5.787,11.664l0,1.327L5.379,12.991L5.379,9.778l0.782,0c0.389,0,0.677,0.076,0.863,0.227c0.186,0.151,0.279,0.38,0.279,0.686c0,0.128,-0.018,0.239,-0.054,0.334c-0.036,0.096,-0.083,0.177,-0.143,0.245s-0.127,0.125,-0.204,0.171c-0.076,0.045,-0.154,0.082,-0.235,0.111l0.875,1.439L7.061,12.991L6.29,11.664L5.787,11.664zM5.787,11.317l0.36,0c0.132,0,0.244,-0.014,0.336,-0.039c0.092,-0.025,0.168,-0.063,0.228,-0.114c0.059,-0.051,0.103,-0.113,0.129,-0.188c0.027,-0.076,0.041,-0.164,0.041,-0.266c0,-0.105,-0.015,-0.194,-0.045,-0.268c-0.03,-0.073,-0.075,-0.133,-0.136,-0.18c-0.061,-0.046,-0.138,-0.08,-0.231,-0.102c-0.093,-0.021,-0.203,-0.032,-0.331,-0.032L5.787,10.128L5.787,11.317z" xmlns="http://www.w3.org/2000/svg" fill="#787878"/>
<path d="M36.563,15.1l-3.602,0c-0.193,0,-0.35,-0.157,-0.35,-0.35s0.156,-0.35,0.35,-0.35l3.602,0c0.193,0,0.352,0.157,0.352,0.35S36.758,15.1,36.563,15.1z" xmlns="http://www.w3.org/2000/svg"/>
<path d="M32.963,15.1l-3.598,0c-0.193,0,-0.351,-0.157,-0.351,-0.35s0.155,-0.35,0.351,-0.35l3.598,0c0.192,0,0.351,0.157,0.351,0.35S33.155,15.1,32.963,15.1z" xmlns="http://www.w3.org/2000/svg"/>
<polygon xmlns="http://www.w3.org/2000/svg" points="36.563,21.951,32.963,21.951,29.365,21.951,32.963,14.75" fill="#FFFFFF"/>
<path d="M37.131,22.3l-8.332,0l4.164,-8.333L37.131,22.3zM29.933,21.599l6.065,0l-3.035,-6.066L29.933,21.599z" xmlns="http://www.w3.org/2000/svg"/>
<path d="M32.963,22.175c-0.124,0,-0.226,-0.102,-0.226,-0.225L32.737,14.75c0,-0.124,0.102,-0.225,0.226,-0.225s0.226,0.101,0.226,0.225l0,7.201C33.188,22.074,33.087,22.175,32.963,22.175z" xmlns="http://www.w3.org/2000/svg"/>
<path d="M37.582,16.414c-0.06,0,-0.115,-0.021,-0.159,-0.063c-0.088,-0.088,-0.088,-0.229,0,-0.317l2.34,-2.34c0.088,-0.088,0.229,-0.088,0.318,0c0.088,0.088,0.088,0.23,0,0.318L37.74,16.35C37.696,16.392,37.64,16.414,37.582,16.414z" xmlns="http://www.w3.org/2000/svg"/>
<path d="M37.224,13.176c-0.059,0,-0.115,-0.022,-0.158,-0.066c-0.09,-0.088,-0.09,-0.23,0,-0.318l2.34,-2.34c0.088,-0.088,0.229,-0.088,0.316,0s0.088,0.23,0,0.318l-2.34,2.34C37.338,13.154,37.278,13.176,37.224,13.176z" xmlns="http://www.w3.org/2000/svg"/>
<path d="M41.542,12.231l-1.08,2.52l-1.438,-1.439L41.542,12.231z" xmlns="http://www.w3.org/2000/svg"/>
<path d="M41.183,8.991l-1.078,2.52l-1.438,-1.438L41.183,8.991z" xmlns="http://www.w3.org/2000/svg"/>
<path d="M22.165,15.1l-3.599,0c-0.193,0,-0.35,-0.157,-0.35,-0.35s0.157,-0.35,0.35,-0.35l3.599,0c0.193,0,0.35,0.157,0.35,0.35S22.358,15.1,22.165,15.1z" xmlns="http://www.w3.org/2000/svg"/>
<path d="M18.565,15.1l-3.601,0c-0.193,0,-0.35,-0.157,-0.35,-0.35s0.157,-0.35,0.35,-0.35l3.601,0c0.193,0,0.35,0.157,0.35,0.35S18.758,15.1,18.565,15.1z" xmlns="http://www.w3.org/2000/svg"/>
<polygon xmlns="http://www.w3.org/2000/svg" points="22.165,21.951,18.565,21.951,14.964,21.951,18.565,14.75" fill="#FFFFFF"/>
<path d="M22.731,22.3l-8.333,0l4.167,-8.333L22.731,22.3zM15.53,21.599l6.067,0l-3.033,-6.066L15.53,21.599z" xmlns="http://www.w3.org/2000/svg"/>
<path d="M18.565,22.175c-0.124,0,-0.225,-0.102,-0.225,-0.225L18.34,14.75c0,-0.124,0.101,-0.225,0.225,-0.225s0.225,0.101,0.225,0.225l0,7.201C18.791,22.074,18.689,22.175,18.565,22.175z" xmlns="http://www.w3.org/2000/svg"/>
<path d="M23.183,16.414c-0.058,0,-0.113,-0.021,-0.158,-0.063c-0.088,-0.088,-0.088,-0.229,0,-0.317l2.342,-2.34c0.088,-0.088,0.229,-0.088,0.316,0c0.09,0.088,0.09,0.23,0,0.318l-2.341,2.339C23.298,16.392,23.24,16.414,23.183,16.414z" xmlns="http://www.w3.org/2000/svg"/>
<path d="M22.821,13.176c-0.057,0,-0.114,-0.022,-0.159,-0.066c-0.088,-0.088,-0.088,-0.23,0,-0.318l2.34,-2.34c0.088,-0.088,0.229,-0.088,0.317,0s0.088,0.23,0,0.318l-2.34,2.34C22.938,13.154,22.88,13.176,22.821,13.176z" xmlns="http://www.w3.org/2000/svg"/>
<path d="M27.144,12.231l-1.08,2.52l-1.438,-1.439L27.144,12.231z" xmlns="http://www.w3.org/2000/svg"/>
<path d="M26.783,8.991l-1.08,2.52l-1.438,-1.438L26.783,8.991z" xmlns="http://www.w3.org/2000/svg"/>
<path d="M7.766,15.1L4.165,15.1c-0.193,0,-0.35,-0.157,-0.35,-0.35s0.157,-0.35,0.35,-0.35l3.601,0c0.193,0,0.35,0.157,0.35,0.35S7.959,15.1,7.766,15.1z" xmlns="http://www.w3.org/2000/svg"/>
<path d="M4.165,15.1L0.566,15.1c-0.193,0,-0.35,-0.157,-0.35,-0.35s0.157,-0.35,0.35,-0.35l3.599,0c0.193,0,0.35,0.157,0.35,0.35S4.359,15.1,4.165,15.1z" xmlns="http://www.w3.org/2000/svg"/>
<polygon xmlns="http://www.w3.org/2000/svg" points="7.766,21.951,4.165,21.951,0.566,21.951,4.165,14.75" fill="#FFFFFF"/>
<path d="M8.332,22.3L0,22.3l4.166,-8.333L8.332,22.3zM1.133,21.599L7.2,21.599l-3.034,-6.066L1.133,21.599z" xmlns="http://www.w3.org/2000/svg"/>
<path d="M4.165,22.175c-0.124,0,-0.225,-0.102,-0.225,-0.225L3.94,14.75c0,-0.124,0.101,-0.225,0.225,-0.225S4.39,14.626,4.39,14.75l0,7.201C4.39,22.074,4.289,22.175,4.165,22.175z" xmlns="http://www.w3.org/2000/svg"/>
<path d="M8.783,16.414c-0.058,0,-0.115,-0.021,-0.159,-0.063c-0.088,-0.088,-0.088,-0.229,0,-0.317l2.339,-2.34c0.088,-0.088,0.23,-0.088,0.318,0c0.088,0.088,0.088,0.23,0,0.318L8.942,16.35C8.898,16.392,8.841,16.414,8.783,16.414z" xmlns="http://www.w3.org/2000/svg"/>
<path d="M8.422,13.176c-0.058,0,-0.115,-0.022,-0.159,-0.066c-0.087,-0.088,-0.087,-0.23,0,-0.318l2.341,-2.34c0.088,-0.088,0.23,-0.088,0.318,0s0.088,0.23,0,0.318l-2.341,2.34C8.537,13.154,8.48,13.176,8.422,13.176z" xmlns="http://www.w3.org/2000/svg"/>
<path d="M12.743,12.231l-1.08,2.52l-1.439,-1.439L12.743,12.231z" xmlns="http://www.w3.org/2000/svg"/>
<path d="M12.382,8.991l-1.08,2.52l-1.438,-1.438L12.382,8.991z" xmlns="http://www.w3.org/2000/svg"/>
<g xmlns="http://www.w3.org/2000/svg">
<path d="M32.964,29.5c-0.193,0,-0.35,-0.156,-0.35,-0.35l0,-7.199c0,-0.193,0.156,-0.352,0.35,-0.352c0.194,0,0.35,0.156,0.35,0.352l0,7.199C33.313,29.343,33.157,29.5,32.964,29.5z" id="connector3pin" xmlns="http://www.w3.org/2000/svg" fill="#787878"/>
<g id="connector3terminal" height="2.397" xmlns="http://www.w3.org/2000/svg" x="32.663" fill="none" y="27.167" width="0.75"/>
<path d="M18.567,7.9c-0.193,0,-0.35,-0.157,-0.35,-0.35l0,-7.2c0,-0.193,0.157,-0.35,0.35,-0.35s0.35,0.157,0.35,0.35l0,7.2C18.917,7.744,18.76,7.9,18.567,7.9z" id="connector1pin" xmlns="http://www.w3.org/2000/svg" fill="#787878"/>
<g id="connector1terminal" height="2.399" xmlns="http://www.w3.org/2000/svg" x="18.205" fill="none" width="0.75"/>
<path d="M18.566,29.5c-0.193,0,-0.35,-0.156,-0.35,-0.35l0,-7.199c0,-0.193,0.157,-0.352,0.35,-0.352s0.35,0.156,0.35,0.352l0,7.199C18.916,29.343,18.759,29.5,18.566,29.5z" id="connector2pin" xmlns="http://www.w3.org/2000/svg" fill="#787878"/>
<g id="connector2terminal" height="2.397" xmlns="http://www.w3.org/2000/svg" x="18.163" fill="none" y="27.167" width="0.75"/>
<path d="M4.165,29.5c-0.193,0,-0.35,-0.156,-0.35,-0.35l0,-7.199c0,-0.193,0.157,-0.352,0.35,-0.352s0.35,0.156,0.35,0.352l0,7.199C4.515,29.343,4.359,29.5,4.165,29.5z" id="connector0pin" xmlns="http://www.w3.org/2000/svg" fill="#787878"/>
<g id="connector0terminal" height="2.397" xmlns="http://www.w3.org/2000/svg" x="3.726" fill="none" y="27.167" width="0.75"/>
</g>
</g>
</g></g></g><g partID='66330'><g transform='translate(206.85,34.0736)' ><g transform='matrix(1,0,0,1,0,0)'  ><g id="schematic" xmlns="http://www.w3.org/2000/svg">
<line stroke-linecap="round" x1="7.55002" y1="3.096" stroke="#000000" xmlns="http://www.w3.org/2000/svg" class="other" stroke-width="0.432002" x2="8.63003" y2="0.216"/>
<line stroke-linecap="round" x1="8.63003" y1="0.216" stroke="#000000" xmlns="http://www.w3.org/2000/svg" class="other" stroke-width="0.432002" x2="10.43" y2="5.976"/>
<line stroke-linecap="round" x1="10.43" y1="5.976" stroke="#000000" xmlns="http://www.w3.org/2000/svg" class="other" stroke-width="0.432002" x2="12.23" y2="0.216"/>
<line stroke-linecap="round" x1="12.23" y1="0.216" stroke="#000000" xmlns="http://www.w3.org/2000/svg" class="other" stroke-width="0.432002" x2="14.03" y2="5.976"/>
<line stroke-linecap="round" x1="14.03" y1="5.976" stroke="#000000" xmlns="http://www.w3.org/2000/svg" class="other" stroke-width="0.432002" x2="15.8301" y2="0.216"/>
<line stroke-linecap="round" x1="15.8301" y1="0.216" stroke="#000000" xmlns="http://www.w3.org/2000/svg" class="other" stroke-width="0.432002" x2="17.6301" y2="5.976"/>
<line stroke-linecap="round" x1="17.6301" y1="5.976" stroke="#000000" xmlns="http://www.w3.org/2000/svg" class="other" stroke-width="0.432002" x2="19.4301" y2="0.216"/>
<line stroke-linecap="round" x1="19.4301" y1="0.216" stroke="#000000" xmlns="http://www.w3.org/2000/svg" class="other" stroke-width="0.432002" x2="21.2301" y2="5.976"/>
<line stroke-linecap="round" x1="21.2301" y1="5.976" stroke="#000000" xmlns="http://www.w3.org/2000/svg" class="other" stroke-width="0.432002" x2="21.9501" y2="3.096"/>
<line stroke-linecap="round" x1="29.1502" y1="3.096" stroke="#787878" id="connector1pin" connectorname="2" xmlns="http://www.w3.org/2000/svg" class="pin" stroke-width="0.700001" x2="21.9501" y2="3.096"/>
<g stroke="none" id="connector1terminal" height="0.000283465" xmlns="http://www.w3.org/2000/svg" class="terminal" stroke-width="0" x="29.1502" fill="none" y="3.096" width="0.000283466"/>
<text font-family="'Droid Sans'" stroke="none" xmlns="http://www.w3.org/2000/svg" class="text" stroke-width="0" x="25.5501" font-size="2.50001" fill="#8c8c8c" y="2.046" text-anchor="middle">2</text>
<line stroke-linecap="round" x1="0.350001" y1="3.096" stroke="#787878" id="connector0pin" connectorname="1" xmlns="http://www.w3.org/2000/svg" class="pin" stroke-width="0.700001" x2="7.55002" y2="3.096"/>
<g stroke="none" id="connector0terminal" height="0.000283465" xmlns="http://www.w3.org/2000/svg" class="terminal" stroke-width="0" x="0.350001" fill="none" y="3.096" width="0.000283466"/>
<text font-family="'Droid Sans'" stroke="none" xmlns="http://www.w3.org/2000/svg" class="text" stroke-width="0" x="3.95001" font-size="2.50001" fill="#8c8c8c" y="2.046" text-anchor="middle">1</text>
</g>
</g></g></g><g partID='66230'><g transform='translate(206.85,19.6736)' ><g transform='matrix(1,0,0,1,0,0)'  ><g id="schematic" xmlns="http://www.w3.org/2000/svg">
<line stroke-linecap="round" x1="7.55002" y1="3.096" stroke="#000000" xmlns="http://www.w3.org/2000/svg" class="other" stroke-width="0.432002" x2="8.63003" y2="0.216"/>
<line stroke-linecap="round" x1="8.63003" y1="0.216" stroke="#000000" xmlns="http://www.w3.org/2000/svg" class="other" stroke-width="0.432002" x2="10.43" y2="5.976"/>
<line stroke-linecap="round" x1="10.43" y1="5.976" stroke="#000000" xmlns="http://www.w3.org/2000/svg" class="other" stroke-width="0.432002" x2="12.23" y2="0.216"/>
<line stroke-linecap="round" x1="12.23" y1="0.216" stroke="#000000" xmlns="http://www.w3.org/2000/svg" class="other" stroke-width="0.432002" x2="14.03" y2="5.976"/>
<line stroke-linecap="round" x1="14.03" y1="5.976" stroke="#000000" xmlns="http://www.w3.org/2000/svg" class="other" stroke-width="0.432002" x2="15.8301" y2="0.216"/>
<line stroke-linecap="round" x1="15.8301" y1="0.216" stroke="#000000" xmlns="http://www.w3.org/2000/svg" class="other" stroke-width="0.432002" x2="17.6301" y2="5.976"/>
<line stroke-linecap="round" x1="17.6301" y1="5.976" stroke="#000000" xmlns="http://www.w3.org/2000/svg" class="other" stroke-width="0.432002" x2="19.4301" y2="0.216"/>
<line stroke-linecap="round" x1="19.4301" y1="0.216" stroke="#000000" xmlns="http://www.w3.org/2000/svg" class="other" stroke-width="0.432002" x2="21.2301" y2="5.976"/>
<line stroke-linecap="round" x1="21.2301" y1="5.976" stroke="#000000" xmlns="http://www.w3.org/2000/svg" class="other" stroke-width="0.432002" x2="21.9501" y2="3.096"/>
<line stroke-linecap="round" x1="29.1502" y1="3.096" stroke="#787878" id="connector1pin" connectorname="2" xmlns="http://www.w3.org/2000/svg" class="pin" stroke-width="0.700001" x2="21.9501" y2="3.096"/>
<g stroke="none" id="connector1terminal" height="0.000283465" xmlns="http://www.w3.org/2000/svg" class="terminal" stroke-width="0" x="29.1502" fill="none" y="3.096" width="0.000283466"/>
<text font-family="'Droid Sans'" stroke="none" xmlns="http://www.w3.org/2000/svg" class="text" stroke-width="0" x="25.5501" font-size="2.50001" fill="#8c8c8c" y="2.046" text-anchor="middle">2</text>
<line stroke-linecap="round" x1="0.350001" y1="3.096" stroke="#787878" id="connector0pin" connectorname="1" xmlns="http://www.w3.org/2000/svg" class="pin" stroke-width="0.700001" x2="7.55002" y2="3.096"/>
<g stroke="none" id="connector0terminal" height="0.000283465" xmlns="http://www.w3.org/2000/svg" class="terminal" stroke-width="0" x="0.350001" fill="none" y="3.096" width="0.000283466"/>
<text font-family="'Droid Sans'" stroke="none" xmlns="http://www.w3.org/2000/svg" class="text" stroke-width="0" x="3.95001" font-size="2.50001" fill="#8c8c8c" y="2.046" text-anchor="middle">1</text>
</g>
</g></g></g><g partID='66120'><g transform='translate(206.85,5.27361)' ><g id="schematic" xmlns="http://www.w3.org/2000/svg">
<line stroke-linecap="round" x1="7.55002" y1="3.096" stroke="#000000" xmlns="http://www.w3.org/2000/svg" class="other" stroke-width="0.432002" x2="8.63003" y2="0.216"/>
<line stroke-linecap="round" x1="8.63003" y1="0.216" stroke="#000000" xmlns="http://www.w3.org/2000/svg" class="other" stroke-width="0.432002" x2="10.43" y2="5.976"/>
<line stroke-linecap="round" x1="10.43" y1="5.976" stroke="#000000" xmlns="http://www.w3.org/2000/svg" class="other" stroke-width="0.432002" x2="12.23" y2="0.216"/>
<line stroke-linecap="round" x1="12.23" y1="0.216" stroke="#000000" xmlns="http://www.w3.org/2000/svg" class="other" stroke-width="0.432002" x2="14.03" y2="5.976"/>
<line stroke-linecap="round" x1="14.03" y1="5.976" stroke="#000000" xmlns="http://www.w3.org/2000/svg" class="other" stroke-width="0.432002" x2="15.8301" y2="0.216"/>
<line stroke-linecap="round" x1="15.8301" y1="0.216" stroke="#000000" xmlns="http://www.w3.org/2000/svg" class="other" stroke-width="0.432002" x2="17.6301" y2="5.976"/>
<line stroke-linecap="round" x1="17.6301" y1="5.976" stroke="#000000" xmlns="http://www.w3.org/2000/svg" class="other" stroke-width="0.432002" x2="19.4301" y2="0.216"/>
<line stroke-linecap="round" x1="19.4301" y1="0.216" stroke="#000000" xmlns="http://www.w3.org/2000/svg" class="other" stroke-width="0.432002" x2="21.2301" y2="5.976"/>
<line stroke-linecap="round" x1="21.2301" y1="5.976" stroke="#000000" xmlns="http://www.w3.org/2000/svg" class="other" stroke-width="0.432002" x2="21.9501" y2="3.096"/>
<line stroke-linecap="round" x1="29.1502" y1="3.096" stroke="#787878" id="connector1pin" connectorname="2" xmlns="http://www.w3.org/2000/svg" class="pin" stroke-width="0.700001" x2="21.9501" y2="3.096"/>
<g stroke="none" id="connector1terminal" height="0.000283465" xmlns="http://www.w3.org/2000/svg" class="terminal" stroke-width="0" x="29.1502" fill="none" y="3.096" width="0.000283466"/>
<text font-family="'Droid Sans'" stroke="none" xmlns="http://www.w3.org/2000/svg" class="text" stroke-width="0" x="25.5501" font-size="2.50001" fill="#8c8c8c" y="2.046" text-anchor="middle">2</text>
<line stroke-linecap="round" x1="0.350001" y1="3.096" stroke="#787878" id="connector0pin" connectorname="1" xmlns="http://www.w3.org/2000/svg" class="pin" stroke-width="0.700001" x2="7.55002" y2="3.096"/>
<g stroke="none" id="connector0terminal" height="0.000283465" xmlns="http://www.w3.org/2000/svg" class="terminal" stroke-width="0" x="0.350001" fill="none" y="3.096" width="0.000283466"/>
<text font-family="'Droid Sans'" stroke="none" xmlns="http://www.w3.org/2000/svg" class="text" stroke-width="0" x="3.95001" font-size="2.50001" fill="#8c8c8c" y="2.046" text-anchor="middle">1</text>
</g>
</g></g><g partID='67270'><line stroke-linecap='round' stroke='#a37911' x1='237.634' y1='37.2277' x2='236' y2='37.1698' stroke-width='0.4' /></g><g partID='67470'><line stroke-linecap='round' stroke='#157de6' x1='237.634' y1='8.29075' x2='236' y2='8.36975' stroke-width='0.4' /></g><g partID='67550'><line stroke-linecap='round' stroke='#25cc35' x1='237.634' y1='22.7278' x2='236' y2='22.7698' stroke-width='0.4' /></g><g partID='66750'><line stroke-linecap='round' stroke='#33ffc5' x1='20.0503' y1='231.535' x2='20.0503' y2='116.47' stroke-width='0.699998' /></g><g partID='66860'><line stroke-linecap='round' stroke='#33ffc5' x1='20.0503' y1='116.47' x2='34.4' y2='116.37' stroke-width='0.699998' /></g><g partID='66760'><line stroke-linecap='round' stroke='#33ffc5' x1='236' y1='166.77' x2='236.149' y2='231.535' stroke-width='0.699998' /></g><g partID='66810'><line stroke-linecap='round' stroke='#33ffc5' x1='236.149' y1='231.535' x2='20.0503' y2='231.535' stroke-width='0.699998' /></g><g partID='66990'><line stroke-linecap='round' stroke='#ab58a2' x1='27.0665' y1='109.103' x2='34.4' y2='109.17' stroke-width='0.699998' /></g><g partID='67040'><line stroke-linecap='round' stroke='#ab58a2' x1='27.0665' y1='224.519' x2='27.0665' y2='109.103' stroke-width='0.699998' /></g><g partID='66930'><line stroke-linecap='round' stroke='#ab58a2' x1='228.782' y1='224.519' x2='27.0665' y2='224.519' stroke-width='0.699998' /></g><g partID='66940'><line stroke-linecap='round' stroke='#ab58a2' x1='228.8' y1='166.77' x2='228.782' y2='224.519' stroke-width='0.699998' /></g><g partID='67110'><line stroke-linecap='round' stroke='#404040' x1='200' y1='209.97' x2='200' y2='130.77' stroke-width='0.699998' /></g><g partID='67120'><line stroke-linecap='round' stroke='#404040' x1='91.9999' y1='209.97' x2='200' y2='209.97' stroke-width='0.699998' /></g><g partID='67790'><line stroke-linecap='round' stroke='#cc1414' x1='84.9502' y1='1.05308' x2='264.916' y2='1.05308' stroke-width='0.699998' /></g><g partID='68090'><line stroke-linecap='round' stroke='#cc1414' x1='264.916' y1='1.05308' x2='264.8' y2='22.7698' stroke-width='0.699998' /></g><circle  fill="black" cx="264.8" cy="22.7698" r="1.44" stroke-width="0" stroke="none" /><g partID='67800'><line stroke-linecap='round' stroke='#cc1414' x1='84.7999' y1='44.3698' x2='84.9502' y2='1.05308' stroke-width='0.699998' /></g><g partID='67910'><line stroke-linecap='round' stroke='#cc1414' x1='286.315' y1='22.8033' x2='264.8' y2='22.7698' stroke-width='0.699998' /></g><circle  fill="black" cx="264.8" cy="22.7698" r="1.44" stroke-width="0" stroke="none" /><g partID='68160'><line stroke-linecap='round' stroke='#cc1414' x1='286.315' y1='130.853' x2='286.315' y2='22.8033' stroke-width='0.699998' /></g><g partID='67920'><line stroke-linecap='round' stroke='#cc1414' x1='264.8' y1='130.77' x2='286.315' y2='130.853' stroke-width='0.699998' /></g><g partID='68230'><line stroke-linecap='round' stroke='#fff800' x1='142.4' y1='87.5698' x2='236.149' y2='87.7032' stroke-width='0.699998' /></g><g partID='68270'><line stroke-linecap='round' stroke='#fff800' x1='236.149' y1='87.7032' x2='236' y2='94.7698' stroke-width='0.699998' /></g><g partID='68400'><line stroke-linecap='round' stroke='#cc1414' x1='149.499' y1='152.252' x2='142.4' y2='152.37' stroke-width='0.699998' /></g><g partID='68340'><line stroke-linecap='round' stroke='#cc1414' x1='149.499' y1='8.42009' x2='149.499' y2='152.252' stroke-width='0.699998' /></g><g partID='68350'><line stroke-linecap='round' stroke='#cc1414' x1='207.2' y1='8.36975' x2='149.499' y2='8.42009' stroke-width='0.699998' /></g><g partID='68530'><line stroke-linecap='round' stroke='#25cc35' x1='163.882' y1='145.236' x2='142.4' y2='145.17' stroke-width='0.699998' /></g><g partID='68470'><line stroke-linecap='round' stroke='#25cc35' x1='163.882' y1='22.8033' x2='163.882' y2='145.236' stroke-width='0.699998' /></g><g partID='68480'><line stroke-linecap='round' stroke='#25cc35' x1='207.2' y1='22.7698' x2='163.882' y2='22.8033' stroke-width='0.699998' /></g><g partID='68660'><line stroke-linecap='round' stroke='#418dd9' x1='178.266' y1='137.869' x2='142.4' y2='137.97' stroke-width='0.699998' /></g><g partID='68600'><line stroke-linecap='round' stroke='#418dd9' x1='178.266' y1='37.1865' x2='178.266' y2='137.869' stroke-width='0.699998' /></g><g partID='68610'><line stroke-linecap='round' stroke='#418dd9' x1='207.2' y1='37.1698' x2='178.266' y2='37.1865' stroke-width='0.699998' /></g><g partID='57680' id='partLabel'><g transform='translate(0,73.1698)' ><g transform='matrix(0,-1,1,0,0,0)'  ><g font-size='5' font-style='normal' font-weight='normal' fill='#000000' font-family="'DroidSans'" id='schematicLabel' fill-opacity='1' stroke='none' ><text x='0' y='3.75'>Part1</text></g></g></g></g><g partID='60340' id='partLabel'><g transform='translate(273.534,6.12427)' ><g font-size='5' font-style='normal' font-weight='normal' fill='#000000' font-family="'DroidSans'" id='schematicLabel' fill-opacity='1' stroke='none' ><text x='0' y='3.75'>LED1</text></g></g></g><g partID='66330' id='partLabel'><g transform='translate(217.146,41.045)' ><g transform='matrix(1,0,0,1,0,0)'  ><g font-size='5' font-style='normal' font-weight='normal' fill='#000000' font-family="'DroidSans'" id='schematicLabel' fill-opacity='1' stroke='none' ><text x='0' y='3.75'>330&#x3a9;</text></g></g></g></g><g partID='66230' id='partLabel'><g transform='translate(216.795,26.9958)' ><g transform='matrix(1,0,0,1,0,0)'  ><g font-size='5' font-style='normal' font-weight='normal' fill='#000000' font-family="'DroidSans'" id='schematicLabel' fill-opacity='1' stroke='none' ><text x='0' y='3.75'>330&#x3a9;</text></g></g></g></g><g partID='66120' id='partLabel'><g transform='translate(215.884,12.399)' ><g transform='matrix(1,0,0,1,0,0)'  ><g font-size='5' font-style='normal' font-weight='normal' fill='#000000' font-family="'DroidSans'" id='schematicLabel' fill-opacity='1' stroke='none' ><text x='0' y='3.75'>330&#x3a9;</text></g></g></g></g></svg>